# xmcd CD database file
#
# Track frame offsets:
#	150
#	19467
#	39684
#	59852
#	76131
#	103359
#	125768
#	145728
#	166127
#	186530
#	204006
#	214246
#	236294
#	258197
#
# Disc length: 3686 seconds
#
# Revision: 0
# Processed by: cddbd v1.5.1PL2 Copyright (c) Steve Scherf et al.
# Submitted via: CDex 1.60beta1-cs1
#
DISCID=ce0e640e
DTITLE=Joeve - The Magic Cascade
DYEAR=2002
DGENRE=New Age
TTITLE0=The Fountain With The Birds
TTITLE1=Dream Bucolic
TTITLE2=Rapture
TTITLE3=With The Shade Of The Large Oak
TTITLE4=Song Of The Source
TTITLE5=With The Kingdom Of The Hinds
TTITLE6=The Magic Cascade
TTITLE7=Dance Of The Butterflies
TTITLE8=The Murmur Of The Wind
TTITLE9=The Return Of Spring
TTITLE10=Under Mysterious Wood
TTITLE11=Pastorale Dawn Serenade
TTITLE12=Money Reflections
TTITLE13=The Secrecy Of The Ondines
EXTD=YEAR: 2002
EXTT0=
EXTT1=
EXTT2=
EXTT3=
EXTT4=
EXTT5=
EXTT6=
EXTT7=
EXTT8=
EXTT9=
EXTT10=
EXTT11=
EXTT12=
EXTT13=
PLAYORDER=
